Coordinates
datacolumns 6
datarows 108
range 0 1.07
inDegrees=yes
Units are S.I. units (second, meters, Newtons, ...)
If the header above contains a line with 'inDegrees', this indicates whether rotational values are in degrees (yes) or radians (no).
endheader
time	foot_tx	hip_flexion_r	knee_angle_r	ankle_angle_r	lumbar
0	0.18086166	56.22817816	-73.90205713	5.73163533	-31.22819566
0.01	0.1808228	56.43865997	-73.88663832	5.74224963	-31.41830066
0.02	0.18078509	56.65878292	-73.87008056	5.7532388	-31.61346086
0.03	0.18074815	56.88838979	-73.85246209	5.7648282	-31.81386494
0.04	0.18071136	57.12680418	-73.83366711	5.7774525	-32.01961021
0.05	0.18067374	57.37295132	-73.81363489	5.79176247	-32.2309791
0.06	0.18063431	57.62560696	-73.7923119	5.80836979	-32.44856237
0.07	0.18059267	57.88371707	-73.76958605	5.82761774	-32.67316966
0.08	0.18054962	58.14658546	-73.74554085	5.84954873	-32.90574272
0.09	0.18050454	58.41488286	-73.71958778	5.873968	-33.14610375
0.1	0.18045803	58.69007195	-73.69231826	5.90055452	-33.39350161
0.11	0.18041095	58.97509453	-73.66397837	5.92873868	-33.64597544
0.12	0.18036609	59.27365795	-73.63439151	5.9576059	-33.90055993
0.13	0.18031829	59.64595623	-73.60890727	5.98483214	-34.09212121
0.14	0.18027498	60.01310972	-73.58002931	6.01348826	-34.30590938
0.15	0.18023427	60.39814618	-73.54992277	6.04338801	-34.51473346
0.16	0.18019554	60.79467018	-73.51792675	6.07564837	-34.7234021
0.17	0.18015976	61.19871464	-73.48324022	6.11076134	-34.93454373
0.18	0.18012402	61.60616165	-73.44728262	6.15047134	-35.15075496
0.19	0.18009002	62.01804144	-73.40945896	6.19448185	-35.37035965
0.2	0.18005967	62.43811033	-73.36995562	6.24227224	-35.58930074
0.21	0.18003431	62.87206154	-73.32908066	6.29310424	-35.80169355
0.22	0.18001548	63.32484394	-73.28658953	6.34611125	-36.00218737
0.23	0.18000223	63.80124406	-73.24241384	6.40091648	-36.18521969
0.24	0.17999861	64.30480573	-73.19580708	6.45647906	-36.34626538
0.25	0.18000188	64.83984382	-73.14633876	6.51262438	-36.47996153
0.26	0.18001839	65.40428486	-73.09294246	6.56871332	-36.58703355
0.27	0.18004644	65.99270019	-73.03497026	6.62605706	-36.67120475
0.28	0.18008639	66.59144888	-72.97140332	6.6864803	-36.74434288
0.29	0.18014544	67.18900296	-72.89988422	6.75033041	-36.81669148
0.3	0.18021386	67.77088073	-72.82306101	6.82159097	-36.90248779
0.31	0.18030248	68.34520037	-72.73737697	6.89654137	-36.99374638
0.32	0.18041133	68.91060229	-72.64311637	6.97517732	-37.09260475
0.33	0.1805407	69.47390376	-72.54053143	7.05657657	-37.19222587
0.34	0.18068085	70.0474528	-72.43141918	7.14073373	-37.27943494
0.35	0.18083155	70.64126657	-72.31501064	7.22596588	-37.34350511
0.36	0.18097918	71.25495078	-72.1951886	7.31541614	-37.3835972
0.37	0.18112706	71.89307623	-72.06730215	7.40582984	-37.39410125
0.38	0.18126763	72.54908045	-71.9312782	7.49851001	-37.38014979
0.39	0.18140102	73.21756197	-71.78484533	7.59282821	-37.34556638
0.4	0.18152781	73.89427126	-71.62677944	7.6884538	-37.29262414
0.41	0.18164838	74.58095941	-71.45660849	7.78477046	-37.21662222
0.42	0.18177143	75.27368172	-71.27317605	7.88080675	-37.11923353
0.43	0.18189645	75.9708768	-71.07702492	7.97709847	-36.99827068
0.44	0.18202459	76.66959193	-70.86867069	8.07440362	-36.8522058
0.45	0.1821552	77.36179283	-70.64840196	8.17392015	-36.68479578
0.46	0.1822869	78.04197407	-70.41690039	8.27674382	-36.49659692
0.47	0.18241151	78.70466352	-70.17617842	8.38499808	-36.28781047
0.48	0.18252479	79.34460981	-69.92770303	8.49992983	-36.05924488
0.49	0.18262178	79.96017565	-69.67379906	8.62265813	-35.80823704
0.5	0.18270118	80.54365785	-69.41619262	8.7538891	-35.54015265
0.51	0.18276926	81.0906277	-69.15728519	8.89369905	-35.25745983
0.52	0.18282633	81.59463462	-68.90008266	9.0424368	-34.96615139
0.53	0.18288482	82.04795239	-68.64627531	9.19928691	-34.67386881
0.54	0.18294671	82.44839264	-68.39934033	9.36437188	-34.3820511
0.55	0.18301914	82.778976	-68.15688724	9.53601196	-34.10660602
0.56	0.18310146	83.04514306	-67.92099744	9.71329149	-33.83997781
0.57	0.18319371	83.23873286	-67.68871419	9.8942158	-33.58774696
0.58	0.18329201	83.35933297	-67.45740069	10.07682383	-33.34681892
0.59	0.18339084	83.40701288	-67.22336646	10.25896022	-33.11379758
0.6	0.18348759	83.38198738	-66.98155652	10.43790612	-32.88630067
0.61	0.18358065	83.28605477	-66.72795133	10.61137027	-32.66035245
0.62	0.18366339	83.12213848	-66.45651095	10.77688493	-32.43306843
0.63	0.1837506	82.88169043	-66.16268176	10.93203132	-32.21566812
0.64	0.18382078	82.60110824	-65.84199867	11.07445324	-31.96772207
0.65	0.18389218	82.28038377	-65.48914759	11.20064997	-31.69305403
0.66	0.18396337	81.92126079	-65.10023698	11.30936205	-31.39438642
0.67	0.18402585	81.52715484	-64.67401204	11.40022535	-31.07248903
0.68	0.18408467	81.10285502	-64.20735639	11.47042959	-30.72771278
0.69	0.1841347	80.6535746	-63.69912703	11.5187341	-30.3601103
0.7	0.18417702	80.18392225	-63.14893154	11.54370047	-29.97076412
0.71	0.18421037	79.69741581	-62.55785468	11.544857	-29.56200413
0.72	0.18423797	79.1945668	-61.92806849	11.52234104	-29.13927776
0.73	0.18426466	78.67745995	-61.26185506	11.47616418	-28.70534831
0.74	0.18429436	78.14596878	-60.56320038	11.40763827	-28.26435061
0.75	0.18432822	77.59866014	-59.83459515	11.31769509	-27.82124529
0.76	0.18436486	77.03272549	-59.08300349	11.2101624	-27.38047618
0.77	0.18439268	76.37837722	-58.31039655	11.09201819	-27.02671685
0.78	0.18442786	75.72137868	-57.51836684	10.95649675	-26.65919318
0.79	0.18446404	75.03653889	-56.71032512	10.80818197	-26.30860592
0.8	0.18450246	74.33001172	-55.88741911	10.64766356	-25.96878841
0.81	0.18453905	73.60559925	-55.05251778	10.47711941	-25.63621359
0.82	0.18457823	72.87218874	-54.20633309	10.29660129	-25.30122626
0.83	0.18461556	72.1338064	-53.3506369	10.10775041	-24.96019766
0.84	0.18465289	71.39503081	-52.48795605	9.91195298	-24.60907112
0.85	0.18468623	70.65408673	-51.61971675	9.71099608	-24.24983338
0.86	0.1847177	69.91100891	-50.74810146	9.50623541	-23.88329427
0.87	0.18474819	69.16395462	-49.87596613	9.29927424	-23.51191058
0.88	0.18478016	68.41011287	-49.00389573	9.0904097	-23.14002212
0.89	0.18480957	67.64550808	-48.13422324	8.88124859	-22.77205555
0.9	0.18483787	66.86978313	-47.26591801	8.67100892	-22.40942496
0.91	0.18485953	66.07763643	-46.40002921	8.4607798	-22.05806815
0.92	0.18487851	65.27669846	-45.53385207	8.24834924	-21.71073064
0.93	0.18488706	64.46163327	-44.66821771	8.0349772	-21.37246282
0.94	0.18488874	63.63656163	-43.79896606	7.81821487	-21.03772628
0.95	0.18488326	62.80530854	-42.93442912	7.6020115	-20.70548787
0.96	0.18486194	61.96715317	-42.0689289	7.38472867	-20.37358999
0.97	0.18484138	61.12479565	-41.2068978	7.1675141	-20.03910715
0.98	0.18481768	60.27606159	-40.34984839	6.95198591	-19.70457249
0.99	0.1847852	59.41804848	-39.49984218	6.74056883	-19.37056459
1	0.18474726	58.54636275	-38.65569147	6.53318395	-19.04124471
1.01	0.18469975	57.65952435	-37.81643637	6.33014081	-18.71597288
1.02	0.18464032	56.75949544	-36.98106097	6.13103771	-18.39153277
1.03	0.18456693	55.85116727	-36.14818833	5.93487818	-18.06196135
1.04	0.18447777	54.93968966	-35.31579556	5.7403607	-17.7209742
1.05	0.18437185	54.02379295	-34.4829603	5.54735229	-17.36977284
1.06	0.18425064	53.0968028	-33.64989898	5.35664206	-17.0162752
1.07	0.18410834	52.15945783	-32.81715315	5.16948892	-16.65775183
